<?xml version="1.0" encoding="UTF-8" ?>
<!DOCTYPE svg PUBLIC "-//W3C//DTD SVG 1.1//EN" "http://www.w3.org/Graphics/SVG/1.1/DTD/svg11.dtd">
<svg width="1250pt" height="1250pt" viewBox="0 0 1250 1250" version="1.1" xmlns="http://www.w3.org/2000/svg">
<g id="#ffffffff">
<path fill="#ffffff" opacity="1.00" d=" M 709.57 31.54 C 718.14 22.34 726.20 12.65 735.04 3.71 C 716.72 96.15 698.23 188.55 679.76 280.96 C 678.73 284.45 679.21 288.71 676.47 291.47 C 600.22 375.22 523.97 458.97 447.74 542.74 C 444.24 546.95 439.97 550.57 437.05 555.25 C 450.69 555.72 464.35 555.21 478.00 555.27 C 560.56 554.75 643.13 554.27 725.69 553.63 C 730.38 529.60 734.63 505.48 739.24 481.43 C 781.50 481.58 823.74 480.93 866.00 481.08 C 881.64 480.91 897.28 480.73 912.93 480.83 C 906.41 514.17 899.99 547.52 893.54 580.86 C 892.92 584.00 892.51 587.18 892.14 590.36 C 899.00 584.51 905.08 577.82 911.52 571.52 C 941.70 541.00 972.02 510.61 1002.17 480.05 C 1069.33 480.21 1136.50 480.53 1203.66 480.88 C 1151.54 538.67 1099.04 596.13 1046.83 653.84 C 872.82 845.51 698.86 1037.21 524.87 1228.89 C 519.67 1234.29 515.11 1240.34 509.49 1245.30 C 517.85 1198.79 527.00 1152.40 535.64 1105.92 C 544.83 1057.33 554.05 1008.75 563.20 960.15 C 563.46 959.19 563.95 958.35 564.66 957.64 C 627.65 885.31 690.57 812.90 753.56 740.56 C 768.69 722.85 784.45 705.67 799.15 687.61 C 777.11 687.02 755.05 687.46 733.00 687.33 C 662.02 687.33 591.04 687.32 520.07 687.31 C 514.98 714.59 510.14 741.91 505.14 769.21 C 454.42 769.30 403.71 769.26 353.00 769.54 C 249.29 769.48 145.59 770.05 41.88 769.92 C 143.56 657.25 245.43 544.77 347.21 432.21 C 467.99 298.65 588.80 165.11 709.57 31.54 Z" />
</g>
</svg>
